<svg width="180" height="40" viewBox="0 0 180 40" fill="none" xmlns="http://www.w3.org/2000/svg">
  <!-- M -->
  <path d="M0 6H5.6L12 20.4L18.4 6H24V34H18.8V15.2L12.8 28H11.2L5.2 15.2V34H0V6Z" fill="#1D1D1B"/>
  <!-- G -->
  <path d="M29 20C29 11.8 34.2 6 42 6C47.4 6 51.2 8.8 53 13.2H47C45.8 11.4 44.2 10.4 42 10.4C37.2 10.4 34.4 14.4 34.4 20C34.4 25.6 37.2 29.6 42 29.6C45.4 29.6 47.8 27.8 48.6 24.8H41.8V20.6H54V22C54 28.6 49.2 34 42 34C34.2 34 29 28.2 29 20Z" fill="#1D1D1B"/>
  <!-- X -->
  <path d="M58 6H64.2L70 15.4L75.8 6H82L73.2 19.8L82.4 34H76.2L70 24.2L63.8 34H57.6L66.8 19.8L58 6Z" fill="#1D1D1B"/>
  <!-- divider dot -->
  <circle cx="90" cy="20" r="2.5" fill="#1D1D1B" opacity="0.35"/>
  <!-- CAMPUS wordmark -->
  <text x="98" y="25" font-family="Arial, Helvetica, sans-serif" font-size="13" font-weight="700" letter-spacing="3.5" fill="#1D1D1B">CAMPUS</text>
</svg>
